<svg width="24" height="24" viewBox="0 0 24 24" fill="none" xmlns="http://www.w3.org/2000/svg">
<g clip-path="url(#clip0_2420_8323)">
<path d="M14.25 20.25H20.25C20.9914 20.25 21.6214 20.0828 22.1445 19.7914L14.25 15.0821V20.25ZM23.8725 17.3287C23.958 16.9474 24.0015 16.5435 24.0015 16.1246V14.2496H18.7103L23.871 17.3287H23.8725ZM0.131295 6.65963C0.0424209 7.0586 -0.00160214 7.46625 4.45344e-05 7.875V9.75H5.31154L0.131295 6.65963ZM9.75004 3.75H3.75005C3.01392 3.75 2.38804 3.915 1.86717 4.20225L9.75004 8.90475V3.75ZM1.89117 19.8097C2.40717 20.0888 3.0248 20.25 3.75005 20.25H9.75004V15.1215L1.89117 19.8097ZM4.45344e-05 14.25V16.125C4.45344e-05 16.5566 0.0457945 16.9725 0.13617 17.3636L5.35579 14.25H4.45344e-05ZM22.1682 4.22063C21.6409 3.92138 21.0023 3.75 20.25 3.75H14.25V8.94413L22.1682 4.22063ZM24 9.75V7.875C24 7.46475 23.9577 7.06913 23.8755 6.69488L18.7545 9.75H24Z" fill="#2E3192"/>
<path d="M18.7545 9.75L23.8755 6.69488C23.6407 5.62088 23.0693 4.73175 22.1681 4.22063L14.25 8.94413V3.75H13.5V10.5H24V9.75H18.7545ZM0 13.5V14.25H5.35575L0.136125 17.3636C0.384 18.4343 0.97275 19.3133 1.89113 19.8097L9.75 15.1215V20.25H10.5V13.5H0ZM24 13.5H13.5V20.25H14.25V15.0821L22.1445 19.7917C23.0524 19.2863 23.631 18.402 23.871 17.3295L18.7103 14.25H24V13.5ZM9.75 3.75V8.90475L1.86713 4.20225C0.955875 4.70475 0.3735 5.5875 0.130875 6.65963L5.3115 9.75H0V10.5H10.5V3.75H9.75Z" fill="#E6E7E8"/>
<path d="M13.5 10.5V3.75H10.5V10.5H0V13.5H10.5V20.25H13.5V13.5H24V10.5H13.5Z" fill="#BE1E2D"/>
<path d="M8.22597 9.74986L0.707219 5.26148C0.545594 5.50148 0.415844 5.76548 0.308594 6.04673L6.51372 9.74986H8.22484H8.22597ZM23.658 18.0336L17.3531 14.2499H15.6071L23.2245 18.832C23.4011 18.5851 23.5467 18.3175 23.658 18.0351V18.0336ZM22.7688 4.64648L14.2376 9.74986L15.9697 9.75098L23.3313 5.34361C23.1671 5.04473 22.9938 4.85198 22.7688 4.64648ZM0.679094 18.703C0.847781 18.9599 1.05078 19.1925 1.28247 19.3945L9.77284 14.2499H8.06172L0.679094 18.703Z" fill="#BE1E2D"/>
</g>
<defs>
<clipPath id="clip0_2420_8323">
<rect width="24" height="24" fill="white"/>
</clipPath>
</defs>
</svg>
